# xmcd
#
# Track frame offsets:
# 150
# 19657
# 45632
# 63522
# 82382
# 99162
# 130452
# 146777
# 168967
# 184760
# 204507
# 227732
# 246255
#
# Disc length: 3583 seconds
#
#
# Revision: 1
# Processed by: cddbd v1.5.2PL0 Copyright (c) Steve Scherf et al.
# Submitted via: FreeRIP 2.951 
#
DISCID=b70dfd0d
DTITLE=Aeroilis - Aeroilis
DYEAR=1900
DGENRE=Gospel and Religious
TTITLE0=Onde Encontrei Tudo
TTITLE1=Silêncio
TTITLE2=Posso Ver
TTITLE3=O Tempo
TTITLE4=Em Suas Mãos
TTITLE5=Coragem
TTITLE6=Sei Que Passou
TTITLE7=Preso
TTITLE8=Os Teus Olhos
TTITLE9=Eu Acreditei
TTITLE10=Sigo em Paz
TTITLE11=Posso Crer
TTITLE12=Em Meio ao Frio e a Dor
EXTD=Banda de Florianópolis-SC
EXTT0=
EXTT1=
EXTT2=
EXTT3=
EXTT4=
EXTT5=
EXTT6=
EXTT7=
EXTT8=
EXTT9=
EXTT10=
EXTT11=
EXTT12=
PLAYORDER=
